<mxfile host="app.diagrams.net" agent="Mozilla/5.0 (Macintosh; Intel Mac OS X 10_15_7) AppleWebKit/537.36 (KHTML, like Gecko) Chrome/129.0.0.0 Safari/537.36" version="24.7.17">
  <diagram name="to_be" id="YkFJGV7sFDX-DhODSbB9">
    <mxGraphModel dx="2244" dy="2776" grid="1" gridSize="10" guides="1" tooltips="1" connect="1" arrows="1" fold="1" page="1" pageScale="1" pageWidth="827" pageHeight="1169" math="0" shadow="0">
      <root>
        <mxCell id="0" />
        <mxCell id="1" parent="0" />
        <object placeholders="1" c4Name="InsureTech Prod" c4Type="SystemScopeBoundary" c4Application="Виртуальная машина" label="&lt;font style=&quot;font-size: 16px&quot;&gt;&lt;b&gt;&lt;div style=&quot;text-align: left&quot;&gt;%c4Name%&lt;/div&gt;&lt;/b&gt;&lt;/font&gt;&lt;div style=&quot;text-align: left&quot;&gt;[%c4Application%]&lt;/div&gt;" id="w0rNK6B3Cl58CwAsle1r-1">
          <mxCell style="rounded=1;fontSize=11;whiteSpace=wrap;html=1;dashed=1;arcSize=20;fillColor=none;strokeColor=#666666;fontColor=#333333;labelBackgroundColor=none;align=left;verticalAlign=bottom;labelBorderColor=none;spacingTop=0;spacing=10;dashPattern=8 4;metaEdit=1;rotatable=0;perimeter=rectanglePerimeter;noLabel=0;labelPadding=0;allowArrows=0;connectable=0;expand=0;recursiveResize=0;editable=1;pointerEvents=0;absoluteArcSize=1;points=[[0.25,0,0],[0.5,0,0],[0.75,0,0],[1,0.25,0],[1,0.5,0],[1,0.75,0],[0.75,1,0],[0.5,1,0],[0.25,1,0],[0,0.75,0],[0,0.5,0],[0,0.25,0]];" parent="1" vertex="1">
            <mxGeometry x="450" y="-20" width="1190" height="1290" as="geometry" />
          </mxCell>
        </object>
        <object placeholders="1" c4Type="core-db" c4Container="Container" c4Technology="PostgreSQL" c4Description="БД используется для хранения тарифов страховых компаний, а также заявок клиентов на страховые продукты" label="&lt;font style=&quot;font-size: 16px&quot;&gt;&lt;b&gt;%c4Type%&lt;/b&gt;&lt;/font&gt;&lt;div&gt;[%c4Container%:&amp;nbsp;%c4Technology%]&lt;/div&gt;&lt;br&gt;&lt;div&gt;&lt;font style=&quot;font-size: 11px&quot;&gt;&lt;font color=&quot;#E6E6E6&quot;&gt;%c4Description%&lt;/font&gt;&lt;/div&gt;" id="w0rNK6B3Cl58CwAsle1r-2">
          <mxCell style="shape=cylinder3;size=5.9999511718749545;whiteSpace=wrap;html=1;boundedLbl=1;rounded=0;labelBackgroundColor=none;fillColor=#23A2D9;fontSize=12;fontColor=#ffffff;align=center;strokeColor=#0E7DAD;metaEdit=1;points=[[0.5,0,0],[1,0.25,0],[1,0.5,0],[1,0.75,0],[0.5,1,0],[0,0.75,0],[0,0.5,0],[0,0.25,0]];resizable=0;" parent="1" vertex="1">
            <mxGeometry x="490" y="670" width="240" height="120" as="geometry" />
          </mxCell>
        </object>
        <object placeholders="1" c4Name="core-app" c4Type="Container" c4Technology="Kotlin, SpringBoot" c4Description="Монолитное приложение:&#xa;• отображает данные о доступных страховых продуктах&#xa;• оформляет новые страховки и ОСАГО&#xa;• отображает информацию о купленных страховках" label="&lt;font style=&quot;font-size: 16px&quot;&gt;&lt;b&gt;%c4Name%&lt;/b&gt;&lt;/font&gt;&lt;div&gt;[%c4Type%: %c4Technology%]&lt;/div&gt;&lt;br&gt;&lt;div&gt;&lt;font style=&quot;font-size: 11px&quot;&gt;&lt;font color=&quot;#E6E6E6&quot;&gt;%c4Description%&lt;/font&gt;&lt;/div&gt;" id="w0rNK6B3Cl58CwAsle1r-3">
          <mxCell style="rounded=1;whiteSpace=wrap;html=1;fontSize=11;labelBackgroundColor=none;fillColor=#23A2D9;fontColor=#ffffff;align=center;arcSize=10;strokeColor=#0E7DAD;metaEdit=1;resizable=0;points=[[0.25,0,0],[0.5,0,0],[0.75,0,0],[1,0.25,0],[1,0.5,0],[1,0.75,0],[0.75,1,0],[0.5,1,0],[0.25,1,0],[0,0.75,0],[0,0.5,0],[0,0.25,0]];" parent="1" vertex="1">
            <mxGeometry x="490" y="430" width="240" height="120" as="geometry" />
          </mxCell>
        </object>
        <object placeholders="1" c4Type="InsureTech Web" c4Container="Container" c4Technology="JavaScript, React" c4Description="Веб-приложение InsureTech" label="&lt;font style=&quot;font-size: 16px&quot;&gt;&lt;b&gt;%c4Type%&lt;/b&gt;&lt;/font&gt;&lt;div&gt;[%c4Container%:&amp;nbsp;%c4Technology%]&lt;/div&gt;&lt;br&gt;&lt;div&gt;&lt;font style=&quot;font-size: 11px&quot;&gt;&lt;font color=&quot;#E6E6E6&quot;&gt;%c4Description%&lt;/font&gt;&lt;/div&gt;" id="w0rNK6B3Cl58CwAsle1r-4">
          <mxCell style="shape=mxgraph.c4.webBrowserContainer2;whiteSpace=wrap;html=1;boundedLbl=1;rounded=0;labelBackgroundColor=none;strokeColor=#118ACD;fillColor=#23A2D9;strokeColor=#118ACD;strokeColor2=#0E7DAD;fontSize=12;fontColor=#ffffff;align=center;metaEdit=1;points=[[0.5,0,0],[1,0.25,0],[1,0.5,0],[1,0.75,0],[0.5,1,0],[0,0.75,0],[0,0.5,0],[0,0.25,0]];resizable=0;" parent="1" vertex="1">
            <mxGeometry x="490" y="160" width="240" height="160" as="geometry" />
          </mxCell>
        </object>
        <object placeholders="1" c4Type="Relationship" c4Technology="REST" c4Description="1. Получения тарифов&#xa;2. Создание заявок на страховки&#xa;3. Создания заявок на ОСАГО" label="&lt;div style=&quot;text-align: left&quot;&gt;&lt;div style=&quot;text-align: center&quot;&gt;&lt;b&gt;%c4Description%&lt;/b&gt;&lt;/div&gt;&lt;div style=&quot;text-align: center&quot;&gt;[%c4Technology%]&lt;/div&gt;&lt;/div&gt;" id="w0rNK6B3Cl58CwAsle1r-5">
          <mxCell style="endArrow=blockThin;html=1;fontSize=10;fontColor=#404040;strokeWidth=1;endFill=1;strokeColor=#828282;elbow=vertical;metaEdit=1;endSize=14;startSize=14;jumpStyle=arc;jumpSize=16;rounded=0;edgeStyle=orthogonalEdgeStyle;" parent="1" source="w0rNK6B3Cl58CwAsle1r-4" target="w0rNK6B3Cl58CwAsle1r-3" edge="1">
            <mxGeometry width="240" relative="1" as="geometry">
              <mxPoint x="550" y="290" as="sourcePoint" />
              <mxPoint x="790" y="290" as="targetPoint" />
              <Array as="points">
                <mxPoint x="610" y="160" />
              </Array>
            </mxGeometry>
          </mxCell>
        </object>
        <object placeholders="1" c4Type="Relationship" c4Technology="TCP" c4Description="Работа с данными" label="&lt;div style=&quot;text-align: left&quot;&gt;&lt;div style=&quot;text-align: center&quot;&gt;&lt;b&gt;%c4Description%&lt;/b&gt;&lt;/div&gt;&lt;div style=&quot;text-align: center&quot;&gt;[%c4Technology%]&lt;/div&gt;&lt;/div&gt;" id="w0rNK6B3Cl58CwAsle1r-6">
          <mxCell style="endArrow=blockThin;html=1;fontSize=10;fontColor=#404040;strokeWidth=1;endFill=1;strokeColor=#828282;elbow=vertical;metaEdit=1;endSize=14;startSize=14;jumpStyle=arc;jumpSize=16;rounded=0;edgeStyle=orthogonalEdgeStyle;" parent="1" source="w0rNK6B3Cl58CwAsle1r-3" target="w0rNK6B3Cl58CwAsle1r-2" edge="1">
            <mxGeometry width="240" relative="1" as="geometry">
              <mxPoint x="600" y="600" as="sourcePoint" />
              <mxPoint x="840" y="600" as="targetPoint" />
            </mxGeometry>
          </mxCell>
        </object>
        <object placeholders="1" c4Name="Системы партнеров" c4Type="Software System" c4Description="Системы партнеров, интегрирующие страховые услуги в свои продукты" label="&lt;font style=&quot;font-size: 16px&quot;&gt;&lt;b&gt;%c4Name%&lt;/b&gt;&lt;/font&gt;&lt;div&gt;[%c4Type%]&lt;/div&gt;&lt;br&gt;&lt;div&gt;&lt;font style=&quot;font-size: 11px&quot;&gt;&lt;font color=&quot;#cccccc&quot;&gt;%c4Description%&lt;/font&gt;&lt;/div&gt;" id="w0rNK6B3Cl58CwAsle1r-7">
          <mxCell style="rounded=1;whiteSpace=wrap;html=1;labelBackgroundColor=none;fillColor=#8C8496;fontColor=#ffffff;align=center;arcSize=10;strokeColor=#736782;metaEdit=1;resizable=0;points=[[0.25,0,0],[0.5,0,0],[0.75,0,0],[1,0.25,0],[1,0.5,0],[1,0.75,0],[0.75,1,0],[0.5,1,0],[0.25,1,0],[0,0.75,0],[0,0.5,0],[0,0.25,0]];" parent="1" vertex="1">
            <mxGeometry x="40" y="515" width="240" height="120" as="geometry" />
          </mxCell>
        </object>
        <object placeholders="1" c4Name="Системы партнеров" c4Type="Software System" c4Description="Системы партнеров, интегрирующие страховые услуги в свои продукты" label="&lt;font style=&quot;font-size: 16px&quot;&gt;&lt;b&gt;%c4Name%&lt;/b&gt;&lt;/font&gt;&lt;div&gt;[%c4Type%]&lt;/div&gt;&lt;br&gt;&lt;div&gt;&lt;font style=&quot;font-size: 11px&quot;&gt;&lt;font color=&quot;#cccccc&quot;&gt;%c4Description%&lt;/font&gt;&lt;/div&gt;" id="w0rNK6B3Cl58CwAsle1r-8">
          <mxCell style="rounded=1;whiteSpace=wrap;html=1;labelBackgroundColor=none;fillColor=#8C8496;fontColor=#ffffff;align=center;arcSize=10;strokeColor=#736782;metaEdit=1;resizable=0;points=[[0.25,0,0],[0.5,0,0],[0.75,0,0],[1,0.25,0],[1,0.5,0],[1,0.75,0],[0.75,1,0],[0.5,1,0],[0.25,1,0],[0,0.75,0],[0,0.5,0],[0,0.25,0]];" parent="1" vertex="1">
            <mxGeometry x="50" y="525" width="240" height="120" as="geometry" />
          </mxCell>
        </object>
        <object placeholders="1" c4Name="Системы партнёров" c4Type="Software System" c4Description="Системы партнёров, интегрирующие страховые услуги в свои продукты" label="&lt;font style=&quot;font-size: 16px&quot;&gt;&lt;b&gt;%c4Name%&lt;/b&gt;&lt;/font&gt;&lt;div&gt;[%c4Type%]&lt;/div&gt;&lt;br&gt;&lt;div&gt;&lt;font style=&quot;font-size: 11px&quot;&gt;&lt;font color=&quot;#cccccc&quot;&gt;%c4Description%&lt;/font&gt;&lt;/div&gt;" id="w0rNK6B3Cl58CwAsle1r-9">
          <mxCell style="rounded=1;whiteSpace=wrap;html=1;labelBackgroundColor=none;fillColor=#8C8496;fontColor=#ffffff;align=center;arcSize=10;strokeColor=#736782;metaEdit=1;resizable=0;points=[[0.25,0,0],[0.5,0,0],[0.75,0,0],[1,0.25,0],[1,0.5,0],[1,0.75,0],[0.75,1,0],[0.5,1,0],[0.25,1,0],[0,0.75,0],[0,0.5,0],[0,0.25,0]];" parent="1" vertex="1">
            <mxGeometry x="60" y="535" width="240" height="120" as="geometry" />
          </mxCell>
        </object>
        <object placeholders="1" c4Type="Relationship" c4Technology="REST" c4Description="Оформление страховок" label="&lt;div style=&quot;text-align: left&quot;&gt;&lt;div style=&quot;text-align: center&quot;&gt;&lt;b&gt;%c4Description%&lt;/b&gt;&lt;/div&gt;&lt;div style=&quot;text-align: center&quot;&gt;[%c4Technology%]&lt;/div&gt;&lt;/div&gt;" id="w0rNK6B3Cl58CwAsle1r-10">
          <mxCell style="endArrow=blockThin;html=1;fontSize=10;fontColor=#404040;strokeWidth=1;endFill=1;strokeColor=#828282;elbow=vertical;metaEdit=1;endSize=14;startSize=14;jumpStyle=arc;jumpSize=16;rounded=0;edgeStyle=orthogonalEdgeStyle;" parent="1" source="w0rNK6B3Cl58CwAsle1r-9" target="w0rNK6B3Cl58CwAsle1r-3" edge="1">
            <mxGeometry x="-0.2075" width="240" relative="1" as="geometry">
              <mxPoint x="50" y="415" as="sourcePoint" />
              <mxPoint x="490" y="595" as="targetPoint" />
              <Array as="points">
                <mxPoint x="370" y="595" />
                <mxPoint x="370" y="520" />
              </Array>
              <mxPoint as="offset" />
            </mxGeometry>
          </mxCell>
        </object>
        <object placeholders="1" c4Name="Системы страховых компаний" c4Type="Software System" c4Description="Системы страховых компаний, предоставляющие API для получения актуальных тарифов, андерайтинга и оформления страховых продуктов" label="&lt;font style=&quot;font-size: 16px&quot;&gt;&lt;b&gt;%c4Name%&lt;/b&gt;&lt;/font&gt;&lt;div&gt;[%c4Type%]&lt;/div&gt;&lt;br&gt;&lt;div&gt;&lt;font style=&quot;font-size: 11px&quot;&gt;&lt;font color=&quot;#cccccc&quot;&gt;%c4Description%&lt;/font&gt;&lt;/div&gt;" id="w0rNK6B3Cl58CwAsle1r-11">
          <mxCell style="rounded=1;whiteSpace=wrap;html=1;labelBackgroundColor=none;fillColor=#8C8496;fontColor=#ffffff;align=center;arcSize=10;strokeColor=#736782;metaEdit=1;resizable=0;points=[[0.25,0,0],[0.5,0,0],[0.75,0,0],[1,0.25,0],[1,0.5,0],[1,0.75,0],[0.75,1,0],[0.5,1,0],[0.25,1,0],[0,0.75,0],[0,0.5,0],[0,0.25,0]];" parent="1" vertex="1">
            <mxGeometry x="1820" y="685" width="240" height="120" as="geometry" />
          </mxCell>
        </object>
        <object placeholders="1" c4Name="Системы страховых компаний" c4Type="Software System" c4Description="Системы страховых компаний, предоставляющие API для получения актуальных тарифов, андерайтинга и оформления страховых продуктов" label="&lt;font style=&quot;font-size: 16px&quot;&gt;&lt;b&gt;%c4Name%&lt;/b&gt;&lt;/font&gt;&lt;div&gt;[%c4Type%]&lt;/div&gt;&lt;br&gt;&lt;div&gt;&lt;font style=&quot;font-size: 11px&quot;&gt;&lt;font color=&quot;#cccccc&quot;&gt;%c4Description%&lt;/font&gt;&lt;/div&gt;" id="w0rNK6B3Cl58CwAsle1r-12">
          <mxCell style="rounded=1;whiteSpace=wrap;html=1;labelBackgroundColor=none;fillColor=#8C8496;fontColor=#ffffff;align=center;arcSize=10;strokeColor=#736782;metaEdit=1;resizable=0;points=[[0.25,0,0],[0.5,0,0],[0.75,0,0],[1,0.25,0],[1,0.5,0],[1,0.75,0],[0.75,1,0],[0.5,1,0],[0.25,1,0],[0,0.75,0],[0,0.5,0],[0,0.25,0]];" parent="1" vertex="1">
            <mxGeometry x="1830" y="695" width="240" height="120" as="geometry" />
          </mxCell>
        </object>
        <object placeholders="1" c4Name="Системы страховых компаний" c4Type="Software System" c4Description="Предоставляют API для получения актуальных тарифов, андерайтинга и оформления страховых продуктов" label="&lt;font style=&quot;font-size: 16px&quot;&gt;&lt;b&gt;%c4Name%&lt;/b&gt;&lt;/font&gt;&lt;div&gt;[%c4Type%]&lt;/div&gt;&lt;br&gt;&lt;div&gt;&lt;font style=&quot;font-size: 11px&quot;&gt;&lt;font color=&quot;#cccccc&quot;&gt;%c4Description%&lt;/font&gt;&lt;/div&gt;" id="w0rNK6B3Cl58CwAsle1r-13">
          <mxCell style="rounded=1;whiteSpace=wrap;html=1;labelBackgroundColor=none;fillColor=#8C8496;fontColor=#ffffff;align=center;arcSize=9;strokeColor=#736782;metaEdit=1;resizable=0;points=[[0.25,0,0],[0.5,0,0],[0.75,0,0],[1,0.25,0],[1,0.5,0],[1,0.75,0],[0.75,1,0],[0.5,1,0],[0.25,1,0],[0,0.75,0],[0,0.5,0],[0,0.25,0]];" parent="1" vertex="1">
            <mxGeometry x="1840" y="705" width="240" height="120" as="geometry" />
          </mxCell>
        </object>
        <object placeholders="1" c4Name="Message Broker" c4Type="Container" c4Technology="Kafka" c4Description="Брокер для обмена сообщениями и публикации событий" label="&lt;font style=&quot;font-size: 16px&quot;&gt;&lt;b&gt;%c4Name%&lt;/b&gt;&lt;/font&gt;&lt;div&gt;[%c4Type%: %c4Technology%]&lt;/div&gt;&lt;br&gt;&lt;div&gt;&lt;font style=&quot;font-size: 11px&quot;&gt;&lt;font color=&quot;#E6E6E6&quot;&gt;%c4Description%&lt;/font&gt;&lt;/div&gt;" id="w0rNK6B3Cl58CwAsle1r-14">
          <mxCell style="rounded=1;whiteSpace=wrap;html=1;fontSize=11;labelBackgroundColor=none;fillColor=#23A2D9;fontColor=#ffffff;align=center;arcSize=10;strokeColor=#0E7DAD;metaEdit=1;resizable=0;points=[[0.25,0,0],[0.5,0,0],[0.75,0,0],[1,0.25,0],[1,0.5,0],[1,0.75,0],[0.75,1,0],[0.5,1,0],[0.25,1,0],[0,0.75,0],[0,0.5,0],[0,0.25,0]];" parent="1" vertex="1">
            <mxGeometry x="1050" y="600" width="240" height="120" as="geometry" />
          </mxCell>
        </object>
        <object placeholders="1" c4Type="Relationship" c4Technology="REST / SOAP / GraphQL" c4Description="Получение информации &#xa;по продуктам и тарифам" label="&lt;div style=&quot;text-align: left&quot;&gt;&lt;div style=&quot;text-align: center&quot;&gt;&lt;b&gt;%c4Description%&lt;/b&gt;&lt;/div&gt;&lt;div style=&quot;text-align: center&quot;&gt;[%c4Technology%]&lt;/div&gt;&lt;/div&gt;" id="w0rNK6B3Cl58CwAsle1r-15">
          <mxCell style="endArrow=blockThin;html=1;fontSize=10;fontColor=#404040;strokeWidth=1;endFill=1;strokeColor=#828282;elbow=vertical;metaEdit=1;endSize=14;startSize=14;jumpStyle=arc;jumpSize=16;rounded=0;edgeStyle=orthogonalEdgeStyle;exitX=1;exitY=0.5;exitDx=0;exitDy=0;exitPerimeter=0;entryX=0;entryY=0.5;entryDx=0;entryDy=0;entryPerimeter=0;" parent="1" source="1t6C7cdGQZstF9amxXTq-2" target="w0rNK6B3Cl58CwAsle1r-11" edge="1">
            <mxGeometry x="0.2046" width="240" relative="1" as="geometry">
              <mxPoint x="1340.0000000000005" y="980" as="sourcePoint" />
              <mxPoint x="2179.9999999999995" y="1070" as="targetPoint" />
              <mxPoint as="offset" />
              <Array as="points">
                <mxPoint x="1730" y="660" />
                <mxPoint x="1730" y="745" />
              </Array>
            </mxGeometry>
          </mxCell>
        </object>
        <object placeholders="1" c4Type="Relationship" c4Technology="Kafka" c4Description="Получение информации &#xa;по продуктам, тарифам и ОСАГО" label="&lt;div style=&quot;text-align: left&quot;&gt;&lt;div style=&quot;text-align: center&quot;&gt;&lt;b&gt;%c4Description%&lt;/b&gt;&lt;/div&gt;&lt;div style=&quot;text-align: center&quot;&gt;[%c4Technology%]&lt;/div&gt;&lt;/div&gt;" id="w0rNK6B3Cl58CwAsle1r-16">
          <mxCell style="endArrow=blockThin;html=1;fontSize=10;fontColor=#404040;strokeWidth=1;endFill=1;strokeColor=#828282;elbow=vertical;metaEdit=1;endSize=14;startSize=14;jumpStyle=arc;jumpSize=16;rounded=0;edgeStyle=orthogonalEdgeStyle;" parent="1" source="w0rNK6B3Cl58CwAsle1r-3" target="w0rNK6B3Cl58CwAsle1r-14" edge="1">
            <mxGeometry width="240" relative="1" as="geometry">
              <mxPoint x="1190" y="500" as="sourcePoint" />
              <mxPoint x="1370" y="500" as="targetPoint" />
              <mxPoint x="-1" as="offset" />
              <Array as="points">
                <mxPoint x="820" y="490" />
                <mxPoint x="820" y="490" />
              </Array>
            </mxGeometry>
          </mxCell>
        </object>
        <object placeholders="1" c4Name="ins-comp-settlement" c4Type="Container" c4Technology="Kotlin, SpringBoot" c4Description="Сервис для осуществления взаиморасчётов со страховыми компаниями" label="&lt;font style=&quot;font-size: 16px&quot;&gt;&lt;b&gt;%c4Name%&lt;/b&gt;&lt;/font&gt;&lt;div&gt;[%c4Type%: %c4Technology%]&lt;/div&gt;&lt;br&gt;&lt;div&gt;&lt;font style=&quot;font-size: 11px&quot;&gt;&lt;font color=&quot;#E6E6E6&quot;&gt;%c4Description%&lt;/font&gt;&lt;/div&gt;" id="w0rNK6B3Cl58CwAsle1r-17">
          <mxCell style="rounded=1;whiteSpace=wrap;html=1;fontSize=11;labelBackgroundColor=none;fillColor=#23A2D9;fontColor=#ffffff;align=center;arcSize=10;strokeColor=#0E7DAD;metaEdit=1;resizable=0;points=[[0.25,0,0],[0.5,0,0],[0.75,0,0],[1,0.25,0],[1,0.5,0],[1,0.75,0],[0.75,1,0],[0.5,1,0],[0.25,1,0],[0,0.75,0],[0,0.5,0],[0,0.25,0]];" parent="1" vertex="1">
            <mxGeometry x="1050" y="840" width="240" height="120" as="geometry" />
          </mxCell>
        </object>
        <object placeholders="1" c4Name="Клиент" c4Type="Person" c4Description="Клиент" label="&lt;font style=&quot;font-size: 16px&quot;&gt;&lt;b&gt;%c4Name%&lt;/b&gt;&lt;/font&gt;&lt;div&gt;[%c4Type%]&lt;/div&gt;&lt;br&gt;&lt;div&gt;&lt;font style=&quot;font-size: 11px&quot;&gt;&lt;font color=&quot;#cccccc&quot;&gt;%c4Description%&lt;/font&gt;&lt;/div&gt;" id="w0rNK6B3Cl58CwAsle1r-18">
          <mxCell style="html=1;fontSize=11;dashed=0;whiteSpace=wrap;fillColor=#083F75;strokeColor=#06315C;fontColor=#ffffff;shape=mxgraph.c4.person2;align=center;metaEdit=1;points=[[0.5,0,0],[1,0.5,0],[1,0.75,0],[0.75,1,0],[0.5,1,0],[0.25,1,0],[0,0.75,0],[0,0.5,0]];resizable=0;" parent="1" vertex="1">
            <mxGeometry x="510" y="-220" width="200" height="180" as="geometry" />
          </mxCell>
        </object>
        <object placeholders="1" c4Type="Relationship" id="w0rNK6B3Cl58CwAsle1r-19">
          <mxCell style="endArrow=blockThin;html=1;fontSize=10;fontColor=#404040;strokeWidth=1;endFill=1;strokeColor=#828282;elbow=vertical;metaEdit=1;endSize=14;startSize=14;jumpStyle=arc;jumpSize=16;rounded=0;edgeStyle=orthogonalEdgeStyle;" parent="1" source="w0rNK6B3Cl58CwAsle1r-18" target="w0rNK6B3Cl58CwAsle1r-4" edge="1">
            <mxGeometry width="240" relative="1" as="geometry">
              <mxPoint x="650" y="10" as="sourcePoint" />
              <mxPoint x="890" y="10" as="targetPoint" />
            </mxGeometry>
          </mxCell>
        </object>
        <object placeholders="1" c4Type="ins-comp-settlement-db" c4Container="Container" c4Technology="PostgreSQL" c4Description="БД используется для хранения данных об оформленных страховках и условиях взаиморасчётов с клиентами" label="&lt;font style=&quot;font-size: 16px&quot;&gt;&lt;b&gt;%c4Type%&lt;/b&gt;&lt;/font&gt;&lt;div&gt;[%c4Container%:&amp;nbsp;%c4Technology%]&lt;/div&gt;&lt;br&gt;&lt;div&gt;&lt;font style=&quot;font-size: 11px&quot;&gt;&lt;font color=&quot;#E6E6E6&quot;&gt;%c4Description%&lt;/font&gt;&lt;/div&gt;" id="w0rNK6B3Cl58CwAsle1r-20">
          <mxCell style="shape=cylinder3;size=8.50981588924617;whiteSpace=wrap;html=1;boundedLbl=1;rounded=0;labelBackgroundColor=none;fillColor=#23A2D9;fontSize=12;fontColor=#ffffff;align=center;strokeColor=#0E7DAD;metaEdit=1;points=[[0.5,0,0],[1,0.25,0],[1,0.5,0],[1,0.75,0],[0.5,1,0],[0,0.75,0],[0,0.5,0],[0,0.25,0]];resizable=0;" parent="1" vertex="1">
            <mxGeometry x="1050" y="1080" width="240" height="120" as="geometry" />
          </mxCell>
        </object>
        <object placeholders="1" c4Type="Relationship" c4Technology="TCP" c4Description="Работа с данными" label="&lt;div style=&quot;text-align: left&quot;&gt;&lt;div style=&quot;text-align: center&quot;&gt;&lt;b&gt;%c4Description%&lt;/b&gt;&lt;/div&gt;&lt;div style=&quot;text-align: center&quot;&gt;[%c4Technology%]&lt;/div&gt;&lt;/div&gt;" id="w0rNK6B3Cl58CwAsle1r-21">
          <mxCell style="endArrow=blockThin;html=1;fontSize=10;fontColor=#404040;strokeWidth=1;endFill=1;strokeColor=#828282;elbow=vertical;metaEdit=1;endSize=14;startSize=14;jumpStyle=arc;jumpSize=16;rounded=0;edgeStyle=orthogonalEdgeStyle;" parent="1" source="w0rNK6B3Cl58CwAsle1r-17" target="w0rNK6B3Cl58CwAsle1r-20" edge="1">
            <mxGeometry width="240" relative="1" as="geometry">
              <mxPoint x="730" y="970" as="sourcePoint" />
              <mxPoint x="730" y="1090" as="targetPoint" />
            </mxGeometry>
          </mxCell>
        </object>
        <object placeholders="1" c4Type="Relationship" c4Technology="REST / SOAP / GraphQL" c4Description="Передача данных для взаиморасчётов" label="&lt;div style=&quot;text-align: left&quot;&gt;&lt;div style=&quot;text-align: center&quot;&gt;&lt;b&gt;%c4Description%&lt;/b&gt;&lt;/div&gt;&lt;div style=&quot;text-align: center&quot;&gt;[%c4Technology%]&lt;/div&gt;&lt;/div&gt;" id="w0rNK6B3Cl58CwAsle1r-22">
          <mxCell style="endArrow=blockThin;html=1;fontSize=10;fontColor=#404040;strokeWidth=1;endFill=1;strokeColor=#828282;elbow=vertical;metaEdit=1;endSize=14;startSize=14;jumpStyle=arc;jumpSize=16;rounded=0;edgeStyle=orthogonalEdgeStyle;entryX=-0.004;entryY=0.885;entryDx=0;entryDy=0;entryPerimeter=0;" parent="1" source="w0rNK6B3Cl58CwAsle1r-17" target="w0rNK6B3Cl58CwAsle1r-11" edge="1">
            <mxGeometry x="0.4637" y="-5" width="240" relative="1" as="geometry">
              <mxPoint x="1150" y="670" as="sourcePoint" />
              <mxPoint x="1780" y="800" as="targetPoint" />
              <mxPoint as="offset" />
              <Array as="points">
                <mxPoint x="1450" y="900" />
                <mxPoint x="1450" y="791" />
              </Array>
            </mxGeometry>
          </mxCell>
        </object>
        <object placeholders="1" c4Type="Relationship" c4Technology="Kafka" c4Description="Получение информации &#xa;по продуктам и тарифам" label="&lt;div style=&quot;text-align: left&quot;&gt;&lt;div style=&quot;text-align: center&quot;&gt;&lt;b&gt;%c4Description%&lt;/b&gt;&lt;/div&gt;&lt;div style=&quot;text-align: center&quot;&gt;[%c4Technology%]&lt;/div&gt;&lt;/div&gt;" id="w0rNK6B3Cl58CwAsle1r-23">
          <mxCell style="endArrow=blockThin;html=1;fontSize=10;fontColor=#404040;strokeWidth=1;endFill=1;strokeColor=#828282;elbow=vertical;metaEdit=1;endSize=14;startSize=14;jumpStyle=arc;jumpSize=16;rounded=0;edgeStyle=orthogonalEdgeStyle;" parent="1" source="w0rNK6B3Cl58CwAsle1r-17" target="w0rNK6B3Cl58CwAsle1r-14" edge="1">
            <mxGeometry width="240" relative="1" as="geometry">
              <mxPoint x="880" y="640" as="sourcePoint" />
              <mxPoint x="1060" y="640" as="targetPoint" />
              <mxPoint x="-1" as="offset" />
              <Array as="points" />
            </mxGeometry>
          </mxCell>
        </object>
        <object placeholders="1" c4Type="Relationship" c4Technology="REST" c4Description="Получение информации &#xa;об оформленных страховках" label="&lt;div style=&quot;text-align: left&quot;&gt;&lt;div style=&quot;text-align: center&quot;&gt;&lt;b&gt;%c4Description%&lt;/b&gt;&lt;/div&gt;&lt;div style=&quot;text-align: center&quot;&gt;[%c4Technology%]&lt;/div&gt;&lt;/div&gt;" id="w0rNK6B3Cl58CwAsle1r-24">
          <mxCell style="endArrow=blockThin;html=1;fontSize=10;fontColor=#404040;strokeWidth=1;endFill=1;strokeColor=#828282;elbow=vertical;metaEdit=1;endSize=14;startSize=14;jumpStyle=arc;jumpSize=16;rounded=0;edgeStyle=orthogonalEdgeStyle;" parent="1" source="w0rNK6B3Cl58CwAsle1r-17" target="w0rNK6B3Cl58CwAsle1r-3" edge="1">
            <mxGeometry x="-0.0725" width="240" relative="1" as="geometry">
              <mxPoint x="740" y="470" as="sourcePoint" />
              <mxPoint x="920" y="470" as="targetPoint" />
              <mxPoint as="offset" />
              <Array as="points">
                <mxPoint x="980" y="900" />
                <mxPoint x="980" y="730" />
                <mxPoint x="830" y="730" />
                <mxPoint x="830" y="530" />
              </Array>
            </mxGeometry>
          </mxCell>
        </object>
        <object placeholders="1" c4Name="Платёжный сервис" c4Type="Software System" c4Description="Внешний платёжный сервис, через который осуществляется оплата страховок. Деньги уходят на счета страховых компаний" label="&lt;font style=&quot;font-size: 16px&quot;&gt;&lt;b&gt;%c4Name%&lt;/b&gt;&lt;/font&gt;&lt;div&gt;[%c4Type%]&lt;/div&gt;&lt;br&gt;&lt;div&gt;&lt;font style=&quot;font-size: 11px&quot;&gt;&lt;font color=&quot;#cccccc&quot;&gt;%c4Description%&lt;/font&gt;&lt;/div&gt;" id="w0rNK6B3Cl58CwAsle1r-25">
          <mxCell style="rounded=1;whiteSpace=wrap;html=1;labelBackgroundColor=none;fillColor=#8C8496;fontColor=#ffffff;align=center;arcSize=10;strokeColor=#736782;metaEdit=1;resizable=0;points=[[0.25,0,0],[0.5,0,0],[0.75,0,0],[1,0.25,0],[1,0.5,0],[1,0.75,0],[0.75,1,0],[0.5,1,0],[0.25,1,0],[0,0.75,0],[0,0.5,0],[0,0.25,0]];" parent="1" vertex="1">
            <mxGeometry x="40" y="320" width="240" height="120" as="geometry" />
          </mxCell>
        </object>
        <object placeholders="1" c4Type="Relationship" c4Technology="HTTP" c4Description="Проведение оплаты &#xa;за страховки" label="&lt;div style=&quot;text-align: left&quot;&gt;&lt;div style=&quot;text-align: center&quot;&gt;&lt;b&gt;%c4Description%&lt;/b&gt;&lt;/div&gt;&lt;div style=&quot;text-align: center&quot;&gt;[%c4Technology%]&lt;/div&gt;&lt;/div&gt;" id="w0rNK6B3Cl58CwAsle1r-26">
          <mxCell style="endArrow=blockThin;html=1;fontSize=10;fontColor=#404040;strokeWidth=1;endFill=1;strokeColor=#828282;elbow=vertical;metaEdit=1;endSize=14;startSize=14;jumpStyle=arc;jumpSize=16;rounded=0;edgeStyle=orthogonalEdgeStyle;" parent="1" source="w0rNK6B3Cl58CwAsle1r-3" target="w0rNK6B3Cl58CwAsle1r-25" edge="1">
            <mxGeometry x="0.1034" width="240" relative="1" as="geometry">
              <mxPoint x="310" y="605" as="sourcePoint" />
              <mxPoint x="500" y="530" as="targetPoint" />
              <Array as="points">
                <mxPoint x="370" y="460" />
                <mxPoint x="370" y="380" />
              </Array>
              <mxPoint as="offset" />
            </mxGeometry>
          </mxCell>
        </object>
        <object placeholders="1" c4Type="Relationship" c4Technology="HTTP" c4Description="Проведение оплаты &#xa;за страховки (redirect)" label="&lt;div style=&quot;text-align: left&quot;&gt;&lt;div style=&quot;text-align: center&quot;&gt;&lt;b&gt;%c4Description%&lt;/b&gt;&lt;/div&gt;&lt;div style=&quot;text-align: center&quot;&gt;[%c4Technology%]&lt;/div&gt;&lt;/div&gt;" id="w0rNK6B3Cl58CwAsle1r-27">
          <mxCell style="endArrow=blockThin;html=1;fontSize=10;fontColor=#404040;strokeWidth=1;endFill=1;strokeColor=#828282;elbow=vertical;metaEdit=1;endSize=14;startSize=14;jumpStyle=arc;jumpSize=16;rounded=0;edgeStyle=orthogonalEdgeStyle;" parent="1" source="w0rNK6B3Cl58CwAsle1r-4" target="w0rNK6B3Cl58CwAsle1r-25" edge="1">
            <mxGeometry x="0.1034" width="240" relative="1" as="geometry">
              <mxPoint x="500" y="470" as="sourcePoint" />
              <mxPoint x="290" y="390" as="targetPoint" />
              <Array as="points">
                <mxPoint x="140" y="230" />
              </Array>
              <mxPoint as="offset" />
            </mxGeometry>
          </mxCell>
        </object>
        <object placeholders="1" c4Name="client-info" c4Type="Container" c4Technology="Kotlin, SpringBoot" c4Description="Сервис для учёта клиентских данных" label="&lt;font style=&quot;font-size: 16px&quot;&gt;&lt;b&gt;%c4Name%&lt;/b&gt;&lt;/font&gt;&lt;div&gt;[%c4Type%: %c4Technology%]&lt;/div&gt;&lt;br&gt;&lt;div&gt;&lt;font style=&quot;font-size: 11px&quot;&gt;&lt;font color=&quot;#E6E6E6&quot;&gt;%c4Description%&lt;/font&gt;&lt;/div&gt;" id="w0rNK6B3Cl58CwAsle1r-28">
          <mxCell style="rounded=1;whiteSpace=wrap;html=1;fontSize=11;labelBackgroundColor=none;fillColor=#23A2D9;fontColor=#ffffff;align=center;arcSize=10;strokeColor=#0E7DAD;metaEdit=1;resizable=0;points=[[0.25,0,0],[0.5,0,0],[0.75,0,0],[1,0.25,0],[1,0.5,0],[1,0.75,0],[0.75,1,0],[0.5,1,0],[0.25,1,0],[0,0.75,0],[0,0.5,0],[0,0.25,0]];" parent="1" vertex="1">
            <mxGeometry x="910" y="180" width="240" height="120" as="geometry" />
          </mxCell>
        </object>
        <object placeholders="1" c4Type="ins-comp-settlement-db" c4Container="Container" c4Technology="PostgreSQL" c4Description="БД используется для хранения данных клиентов: ФИО, телефон, паспорт и др. Информация необходима для оформления страховок" label="&lt;font style=&quot;font-size: 16px&quot;&gt;&lt;b&gt;%c4Type%&lt;/b&gt;&lt;/font&gt;&lt;div&gt;[%c4Container%:&amp;nbsp;%c4Technology%]&lt;/div&gt;&lt;br&gt;&lt;div&gt;&lt;font style=&quot;font-size: 11px&quot;&gt;&lt;font color=&quot;#E6E6E6&quot;&gt;%c4Description%&lt;/font&gt;&lt;/div&gt;" id="w0rNK6B3Cl58CwAsle1r-29">
          <mxCell style="shape=cylinder3;size=6.172056136592715;whiteSpace=wrap;html=1;boundedLbl=1;rounded=0;labelBackgroundColor=none;fillColor=#23A2D9;fontSize=12;fontColor=#ffffff;align=center;strokeColor=#0E7DAD;metaEdit=1;points=[[0.5,0,0],[1,0.25,0],[1,0.5,0],[1,0.75,0],[0.5,1,0],[0,0.75,0],[0,0.5,0],[0,0.25,0]];resizable=0;" parent="1" vertex="1">
            <mxGeometry x="910" width="240" height="120" as="geometry" />
          </mxCell>
        </object>
        <object placeholders="1" c4Type="Relationship" c4Technology="TCP" c4Description="Работа с данными" label="&lt;div style=&quot;text-align: left&quot;&gt;&lt;div style=&quot;text-align: center&quot;&gt;&lt;b&gt;%c4Description%&lt;/b&gt;&lt;/div&gt;&lt;div style=&quot;text-align: center&quot;&gt;[%c4Technology%]&lt;/div&gt;&lt;/div&gt;" id="w0rNK6B3Cl58CwAsle1r-30">
          <mxCell style="endArrow=blockThin;html=1;fontSize=10;fontColor=#404040;strokeWidth=1;endFill=1;strokeColor=#828282;elbow=vertical;metaEdit=1;endSize=14;startSize=14;jumpStyle=arc;jumpSize=16;rounded=0;edgeStyle=orthogonalEdgeStyle;" parent="1" source="w0rNK6B3Cl58CwAsle1r-28" target="w0rNK6B3Cl58CwAsle1r-29" edge="1">
            <mxGeometry x="-0.1429" width="240" relative="1" as="geometry">
              <mxPoint x="1040" y="800" as="sourcePoint" />
              <mxPoint x="1040" y="920" as="targetPoint" />
              <mxPoint as="offset" />
            </mxGeometry>
          </mxCell>
        </object>
        <object placeholders="1" c4Type="Relationship" c4Technology="REST" c4Description="Получение/сохранение информации о клиентах" label="&lt;div style=&quot;text-align: left&quot;&gt;&lt;div style=&quot;text-align: center&quot;&gt;&lt;b&gt;%c4Description%&lt;/b&gt;&lt;/div&gt;&lt;div style=&quot;text-align: center&quot;&gt;[%c4Technology%]&lt;/div&gt;&lt;/div&gt;" id="w0rNK6B3Cl58CwAsle1r-31">
          <mxCell style="endArrow=blockThin;html=1;fontSize=10;fontColor=#404040;strokeWidth=1;endFill=1;strokeColor=#828282;elbow=vertical;metaEdit=1;endSize=14;startSize=14;jumpStyle=arc;jumpSize=16;rounded=0;edgeStyle=orthogonalEdgeStyle;" parent="1" source="w0rNK6B3Cl58CwAsle1r-3" target="w0rNK6B3Cl58CwAsle1r-28" edge="1">
            <mxGeometry width="240" relative="1" as="geometry">
              <mxPoint x="740" y="500" as="sourcePoint" />
              <mxPoint x="920" y="500" as="targetPoint" />
              <mxPoint x="-1" as="offset" />
              <Array as="points">
                <mxPoint x="830" y="450" />
                <mxPoint x="830" y="280" />
              </Array>
            </mxGeometry>
          </mxCell>
        </object>
        <object placeholders="1" c4Type="Relationship" c4Technology="REST" c4Description="Получение/сохранение&#xa; информации о клиентах" label="&lt;div style=&quot;text-align: left&quot;&gt;&lt;div style=&quot;text-align: center&quot;&gt;&lt;b&gt;%c4Description%&lt;/b&gt;&lt;/div&gt;&lt;div style=&quot;text-align: center&quot;&gt;[%c4Technology%]&lt;/div&gt;&lt;/div&gt;" id="w0rNK6B3Cl58CwAsle1r-32">
          <mxCell style="endArrow=blockThin;html=1;fontSize=10;fontColor=#404040;strokeWidth=1;endFill=1;strokeColor=#828282;elbow=vertical;metaEdit=1;endSize=14;startSize=14;jumpStyle=arc;jumpSize=16;rounded=0;edgeStyle=orthogonalEdgeStyle;" parent="1" source="w0rNK6B3Cl58CwAsle1r-4" target="w0rNK6B3Cl58CwAsle1r-28" edge="1">
            <mxGeometry width="240" relative="1" as="geometry">
              <mxPoint x="740" y="460" as="sourcePoint" />
              <mxPoint x="920" y="290" as="targetPoint" />
              <mxPoint x="-1" as="offset" />
              <Array as="points">
                <mxPoint x="820" y="220" />
                <mxPoint x="820" y="220" />
              </Array>
            </mxGeometry>
          </mxCell>
        </object>
        <object placeholders="1" c4Name="ins-product-aggregator" c4Type="Container" c4Technology="Kotlin, SpringBoot" c4Description="Сервис для интеграции со страховыми компаниями с целью получения информации по страховым продуктам. Предоставляет единый API для core-app" label="&lt;font style=&quot;font-size: 16px&quot;&gt;&lt;b&gt;%c4Name%&lt;/b&gt;&lt;/font&gt;&lt;div&gt;[%c4Type%: %c4Technology%]&lt;/div&gt;&lt;br&gt;&lt;div&gt;&lt;font style=&quot;font-size: 11px&quot;&gt;&lt;font color=&quot;#E6E6E6&quot;&gt;%c4Description%&lt;/font&gt;&lt;/div&gt;" id="1t6C7cdGQZstF9amxXTq-2">
          <mxCell style="rounded=1;whiteSpace=wrap;html=1;fontSize=11;labelBackgroundColor=none;fillColor=#23A2D9;fontColor=#ffffff;align=center;arcSize=10;strokeColor=#0E7DAD;metaEdit=1;resizable=0;points=[[0.25,0,0],[0.5,0,0],[0.75,0,0],[1,0.25,0],[1,0.5,0],[1,0.75,0],[0.75,1,0],[0.5,1,0],[0.25,1,0],[0,0.75,0],[0,0.5,0],[0,0.25,0]];" parent="1" vertex="1">
            <mxGeometry x="1340" y="600" width="240" height="120" as="geometry" />
          </mxCell>
        </object>
        <object placeholders="1" c4Type="Relationship" c4Technology="Kafka" c4Description="Публикация данных о тарифах&#xa;от каждой страховой компании" label="&lt;div style=&quot;text-align: left&quot;&gt;&lt;div style=&quot;text-align: center&quot;&gt;&lt;b&gt;%c4Description%&lt;/b&gt;&lt;/div&gt;&lt;div style=&quot;text-align: center&quot;&gt;[%c4Technology%]&lt;/div&gt;&lt;/div&gt;" id="1t6C7cdGQZstF9amxXTq-4">
          <mxCell style="endArrow=blockThin;html=1;fontSize=10;fontColor=#404040;strokeWidth=1;endFill=1;strokeColor=#828282;elbow=vertical;metaEdit=1;endSize=14;startSize=14;jumpStyle=arc;jumpSize=16;rounded=0;edgeStyle=orthogonalEdgeStyle;" parent="1" edge="1">
            <mxGeometry width="240" relative="1" as="geometry">
              <mxPoint x="1470" y="600" as="sourcePoint" />
              <mxPoint x="1250" y="600" as="targetPoint" />
              <mxPoint x="1" as="offset" />
              <Array as="points">
                <mxPoint x="1480" y="600" />
                <mxPoint x="1480" y="530" />
                <mxPoint x="1250" y="530" />
              </Array>
            </mxGeometry>
          </mxCell>
        </object>
        <object placeholders="1" c4Name="osago-aggregator" c4Type="Container" c4Technology="Kotlin, SpringBoot" c4Description="Сервис для интеграции со страховыми компаниями с целью получения информации по ОСАГО. Предоставляет единый API для core-app" label="&lt;font style=&quot;font-size: 16px&quot;&gt;&lt;b&gt;%c4Name%&lt;/b&gt;&lt;/font&gt;&lt;div&gt;[%c4Type%: %c4Technology%]&lt;/div&gt;&lt;br&gt;&lt;div&gt;&lt;font style=&quot;font-size: 11px&quot;&gt;&lt;font color=&quot;#E6E6E6&quot;&gt;%c4Description%&lt;/font&gt;&lt;/div&gt;" id="rYwS2TJLzh6BGtiG2vgv-1">
          <mxCell style="rounded=1;whiteSpace=wrap;html=1;fontSize=11;labelBackgroundColor=none;fillColor=#23A2D9;fontColor=#ffffff;align=center;arcSize=10;strokeColor=#0E7DAD;metaEdit=1;resizable=0;points=[[0.25,0,0],[0.5,0,0],[0.75,0,0],[1,0.25,0],[1,0.5,0],[1,0.75,0],[0.75,1,0],[0.5,1,0],[0.25,1,0],[0,0.75,0],[0,0.5,0],[0,0.25,0]];" vertex="1" parent="1">
            <mxGeometry x="1200" y="320" width="240" height="120" as="geometry" />
          </mxCell>
        </object>
        <object placeholders="1" c4Name="Системы страховых компаний" c4Type="Software System" c4Description="Системы страховых компаний, предоставляющие API для получения актуальных тарифов, андерайтинга и оформления страховых продуктов" label="&lt;font style=&quot;font-size: 16px&quot;&gt;&lt;b&gt;%c4Name%&lt;/b&gt;&lt;/font&gt;&lt;div&gt;[%c4Type%]&lt;/div&gt;&lt;br&gt;&lt;div&gt;&lt;font style=&quot;font-size: 11px&quot;&gt;&lt;font color=&quot;#cccccc&quot;&gt;%c4Description%&lt;/font&gt;&lt;/div&gt;" id="rYwS2TJLzh6BGtiG2vgv-2">
          <mxCell style="rounded=1;whiteSpace=wrap;html=1;labelBackgroundColor=none;fillColor=#8C8496;fontColor=#ffffff;align=center;arcSize=10;strokeColor=#736782;metaEdit=1;resizable=0;points=[[0.25,0,0],[0.5,0,0],[0.75,0,0],[1,0.25,0],[1,0.5,0],[1,0.75,0],[0.75,1,0],[0.5,1,0],[0.25,1,0],[0,0.75,0],[0,0.5,0],[0,0.25,0]];" vertex="1" parent="1">
            <mxGeometry x="1820" y="320" width="240" height="120" as="geometry" />
          </mxCell>
        </object>
        <object placeholders="1" c4Name="Системы страховых компаний" c4Type="Software System" c4Description="Системы страховых компаний, предоставляющие API для получения актуальных тарифов, андерайтинга и оформления страховых продуктов" label="&lt;font style=&quot;font-size: 16px&quot;&gt;&lt;b&gt;%c4Name%&lt;/b&gt;&lt;/font&gt;&lt;div&gt;[%c4Type%]&lt;/div&gt;&lt;br&gt;&lt;div&gt;&lt;font style=&quot;font-size: 11px&quot;&gt;&lt;font color=&quot;#cccccc&quot;&gt;%c4Description%&lt;/font&gt;&lt;/div&gt;" id="rYwS2TJLzh6BGtiG2vgv-3">
          <mxCell style="rounded=1;whiteSpace=wrap;html=1;labelBackgroundColor=none;fillColor=#8C8496;fontColor=#ffffff;align=center;arcSize=10;strokeColor=#736782;metaEdit=1;resizable=0;points=[[0.25,0,0],[0.5,0,0],[0.75,0,0],[1,0.25,0],[1,0.5,0],[1,0.75,0],[0.75,1,0],[0.5,1,0],[0.25,1,0],[0,0.75,0],[0,0.5,0],[0,0.25,0]];" vertex="1" parent="1">
            <mxGeometry x="1830" y="330" width="240" height="120" as="geometry" />
          </mxCell>
        </object>
        <object placeholders="1" c4Name="Системы страховых компаний (ОСАГО)" c4Type="Software System" c4Description="Предоставляют API для получения актуальных тарифов, андерайтинга и оформления страховых продуктов (ОСАГО)" label="&lt;font style=&quot;font-size: 16px&quot;&gt;&lt;b&gt;%c4Name%&lt;/b&gt;&lt;/font&gt;&lt;div&gt;[%c4Type%]&lt;/div&gt;&lt;br&gt;&lt;div&gt;&lt;font style=&quot;font-size: 11px&quot;&gt;&lt;font color=&quot;#cccccc&quot;&gt;%c4Description%&lt;/font&gt;&lt;/div&gt;" id="rYwS2TJLzh6BGtiG2vgv-4">
          <mxCell style="rounded=1;whiteSpace=wrap;html=1;labelBackgroundColor=none;fillColor=#8C8496;fontColor=#ffffff;align=center;arcSize=9;strokeColor=#736782;metaEdit=1;resizable=0;points=[[0.25,0,0],[0.5,0,0],[0.75,0,0],[1,0.25,0],[1,0.5,0],[1,0.75,0],[0.75,1,0],[0.5,1,0],[0.25,1,0],[0,0.75,0],[0,0.5,0],[0,0.25,0]];" vertex="1" parent="1">
            <mxGeometry x="1840" y="340" width="240" height="120" as="geometry" />
          </mxCell>
        </object>
        <object placeholders="1" c4Type="osago-aggregator-db" c4Container="Container" c4Technology="PostgreSQL" c4Description="БД используется для хранения запросов к вендорам по заявкам ОСАГО" label="&lt;font style=&quot;font-size: 16px&quot;&gt;&lt;b&gt;%c4Type%&lt;/b&gt;&lt;/font&gt;&lt;div&gt;[%c4Container%:&amp;nbsp;%c4Technology%]&lt;/div&gt;&lt;br&gt;&lt;div&gt;&lt;font style=&quot;font-size: 11px&quot;&gt;&lt;font color=&quot;#E6E6E6&quot;&gt;%c4Description%&lt;/font&gt;&lt;/div&gt;" id="rYwS2TJLzh6BGtiG2vgv-5">
          <mxCell style="shape=cylinder3;size=6.172056136592715;whiteSpace=wrap;html=1;boundedLbl=1;rounded=0;labelBackgroundColor=none;fillColor=#23A2D9;fontSize=12;fontColor=#ffffff;align=center;strokeColor=#0E7DAD;metaEdit=1;points=[[0.5,0,0],[1,0.25,0],[1,0.5,0],[1,0.75,0],[0.5,1,0],[0,0.75,0],[0,0.5,0],[0,0.25,0]];resizable=0;" vertex="1" parent="1">
            <mxGeometry x="1210" width="240" height="120" as="geometry" />
          </mxCell>
        </object>
        <object placeholders="1" c4Type="Relationship" c4Technology="TCP" c4Description="Работа с данными" label="&lt;div style=&quot;text-align: left&quot;&gt;&lt;div style=&quot;text-align: center&quot;&gt;&lt;b&gt;%c4Description%&lt;/b&gt;&lt;/div&gt;&lt;div style=&quot;text-align: center&quot;&gt;[%c4Technology%]&lt;/div&gt;&lt;/div&gt;" id="rYwS2TJLzh6BGtiG2vgv-6">
          <mxCell style="endArrow=blockThin;html=1;fontSize=10;fontColor=#404040;strokeWidth=1;endFill=1;strokeColor=#828282;elbow=vertical;metaEdit=1;endSize=14;startSize=14;jumpStyle=arc;jumpSize=16;rounded=0;edgeStyle=orthogonalEdgeStyle;exitX=0.5;exitY=0;exitDx=0;exitDy=0;exitPerimeter=0;" edge="1" parent="1" source="rYwS2TJLzh6BGtiG2vgv-1">
            <mxGeometry x="-0.1429" width="240" relative="1" as="geometry">
              <mxPoint x="1040" y="190" as="sourcePoint" />
              <mxPoint x="1320" y="120" as="targetPoint" />
              <mxPoint as="offset" />
              <Array as="points">
                <mxPoint x="1320" y="120" />
              </Array>
            </mxGeometry>
          </mxCell>
        </object>
        <object placeholders="1" c4Type="Relationship" c4Technology="REST / SOAP / GraphQL" c4Description="Создание заявок ОСАГО&#xa;и получение ответов по ним" label="&lt;div style=&quot;text-align: left&quot;&gt;&lt;div style=&quot;text-align: center&quot;&gt;&lt;b&gt;%c4Description%&lt;/b&gt;&lt;/div&gt;&lt;div style=&quot;text-align: center&quot;&gt;[%c4Technology%]&lt;/div&gt;&lt;/div&gt;" id="rYwS2TJLzh6BGtiG2vgv-7">
          <mxCell style="endArrow=blockThin;html=1;fontSize=10;fontColor=#404040;strokeWidth=1;endFill=1;strokeColor=#828282;elbow=vertical;metaEdit=1;endSize=14;startSize=14;jumpStyle=arc;jumpSize=16;rounded=0;edgeStyle=orthogonalEdgeStyle;exitX=1;exitY=0.5;exitDx=0;exitDy=0;exitPerimeter=0;entryX=0;entryY=0.5;entryDx=0;entryDy=0;entryPerimeter=0;" edge="1" parent="1" source="rYwS2TJLzh6BGtiG2vgv-1" target="rYwS2TJLzh6BGtiG2vgv-2">
            <mxGeometry y="30" width="240" relative="1" as="geometry">
              <mxPoint x="1510" y="340" as="sourcePoint" />
              <mxPoint x="1750" y="425" as="targetPoint" />
              <mxPoint x="1" as="offset" />
              <Array as="points">
                <mxPoint x="1730" y="380" />
                <mxPoint x="1730" y="380" />
              </Array>
            </mxGeometry>
          </mxCell>
        </object>
        <object placeholders="1" c4Type="Relationship" c4Technology="Kafka" c4Description="Публикация данных об ответах ОСАГО&#xa;(Transactional outbox)" label="&lt;div style=&quot;text-align: left&quot;&gt;&lt;div style=&quot;text-align: center&quot;&gt;&lt;b&gt;%c4Description%&lt;/b&gt;&lt;/div&gt;&lt;div style=&quot;text-align: center&quot;&gt;[%c4Technology%]&lt;/div&gt;&lt;/div&gt;" id="rYwS2TJLzh6BGtiG2vgv-8">
          <mxCell style="endArrow=blockThin;html=1;fontSize=10;fontColor=#404040;strokeWidth=1;endFill=1;strokeColor=#828282;elbow=vertical;metaEdit=1;endSize=14;startSize=14;jumpStyle=arc;jumpSize=16;rounded=0;edgeStyle=orthogonalEdgeStyle;entryX=0.75;entryY=0;entryDx=0;entryDy=0;entryPerimeter=0;" edge="1" parent="1" target="w0rNK6B3Cl58CwAsle1r-14">
            <mxGeometry x="-0.6207" width="240" relative="1" as="geometry">
              <mxPoint x="1230" y="440" as="sourcePoint" />
              <mxPoint x="1370" y="620" as="targetPoint" />
              <mxPoint as="offset" />
              <Array as="points">
                <mxPoint x="1230" y="440" />
              </Array>
            </mxGeometry>
          </mxCell>
        </object>
        <object placeholders="1" c4Type="Relationship" c4Technology="REST" c4Description="Создание запросов по ОСАГО всем вендорам&#xa;Получение ответов вендоров по ОСАГО (синхронный вариант)" label="&lt;div style=&quot;text-align: left&quot;&gt;&lt;div style=&quot;text-align: center&quot;&gt;&lt;b&gt;%c4Description%&lt;/b&gt;&lt;/div&gt;&lt;div style=&quot;text-align: center&quot;&gt;[%c4Technology%]&lt;/div&gt;&lt;/div&gt;" id="rYwS2TJLzh6BGtiG2vgv-9">
          <mxCell style="endArrow=blockThin;html=1;fontSize=10;fontColor=#404040;strokeWidth=1;endFill=1;strokeColor=#828282;elbow=vertical;metaEdit=1;endSize=14;startSize=14;jumpStyle=arc;jumpSize=16;rounded=0;edgeStyle=orthogonalEdgeStyle;exitX=1;exitY=0.25;exitDx=0;exitDy=0;exitPerimeter=0;entryX=0;entryY=0.5;entryDx=0;entryDy=0;entryPerimeter=0;" edge="1" parent="1" source="w0rNK6B3Cl58CwAsle1r-3" target="rYwS2TJLzh6BGtiG2vgv-1">
            <mxGeometry x="0.0547" y="-10" width="240" relative="1" as="geometry">
              <mxPoint x="740" y="500" as="sourcePoint" />
              <mxPoint x="1180" y="610" as="targetPoint" />
              <mxPoint as="offset" />
              <Array as="points">
                <mxPoint x="990" y="460" />
                <mxPoint x="990" y="380" />
              </Array>
            </mxGeometry>
          </mxCell>
        </object>
        <mxCell id="rYwS2TJLzh6BGtiG2vgv-10" value="" style="aspect=fixed;sketch=0;html=1;dashed=0;whitespace=wrap;verticalLabelPosition=bottom;verticalAlign=top;fillColor=#2875E2;strokeColor=#ffffff;points=[[0.005,0.63,0],[0.1,0.2,0],[0.9,0.2,0],[0.5,0,0],[0.995,0.63,0],[0.72,0.99,0],[0.5,1,0],[0.28,0.99,0]];shape=mxgraph.kubernetes.icon2;prIcon=c_role" vertex="1" parent="1">
          <mxGeometry x="1710" y="320" width="50" height="48" as="geometry" />
        </mxCell>
        <mxCell id="rYwS2TJLzh6BGtiG2vgv-12" value="" style="aspect=fixed;sketch=0;html=1;dashed=0;whitespace=wrap;verticalLabelPosition=bottom;verticalAlign=top;fillColor=#2875E2;strokeColor=#ffffff;points=[[0.005,0.63,0],[0.1,0.2,0],[0.9,0.2,0],[0.5,0,0],[0.995,0.63,0],[0.72,0.99,0],[0.5,1,0],[0.28,0.99,0]];shape=mxgraph.kubernetes.icon2;prIcon=quota" vertex="1" parent="1">
          <mxGeometry x="1760" y="320" width="50" height="48" as="geometry" />
        </mxCell>
        <mxCell id="rYwS2TJLzh6BGtiG2vgv-13" value="" style="aspect=fixed;sketch=0;html=1;dashed=0;whitespace=wrap;verticalLabelPosition=bottom;verticalAlign=top;fillColor=#2875E2;strokeColor=#ffffff;points=[[0.005,0.63,0],[0.1,0.2,0],[0.9,0.2,0],[0.5,0,0],[0.995,0.63,0],[0.72,0.99,0],[0.5,1,0],[0.28,0.99,0]];shape=mxgraph.kubernetes.icon2;prIcon=job" vertex="1" parent="1">
          <mxGeometry x="470" y="340" width="50" height="48" as="geometry" />
        </mxCell>
        <mxCell id="rYwS2TJLzh6BGtiG2vgv-16" value="&lt;h3 id=&quot;база-данных&quot; style=&quot;box-sizing: border-box; position: relative; margin-top: 1em; margin-bottom: 16px; font-weight: bold; line-height: 1; font-size: 1.3em; padding-top: 0.6em; font-family: Helvetica, Arial, freesans, sans-serif; font-style: normal; font-variant-ligatures: normal; font-variant-caps: normal; letter-spacing: normal; orphans: 2; text-align: start; text-indent: 0px; text-transform: none; white-space: normal; widows: 2; word-spacing: 0px; -webkit-text-stroke-width: 0px; text-decoration-thickness: initial; text-decoration-style: initial; text-decoration-color: initial;&quot;&gt;База данных&lt;/h3&gt;&lt;p style=&quot;box-sizing: border-box; margin-top: 16px; margin-bottom: 16px; font-family: Helvetica, Arial, freesans, sans-serif; font-size: 14px; font-style: normal; font-variant-ligatures: normal; font-variant-caps: normal; font-weight: 400; letter-spacing: normal; orphans: 2; text-align: start; text-indent: 0px; text-transform: none; white-space: normal; widows: 2; word-spacing: 0px; -webkit-text-stroke-width: 0px; text-decoration-thickness: initial; text-decoration-style: initial; text-decoration-color: initial;&quot;&gt;&lt;span style=&quot;box-sizing: border-box;&quot;&gt;Сервису&lt;/span&gt;&lt;span&gt;&amp;nbsp;&lt;/span&gt;&lt;code style=&quot;box-sizing: border-box; font: 0.9em &amp;quot;JetBrains Mono&amp;quot;, Consolas, &amp;quot;Liberation Mono&amp;quot;, Menlo, Courier, monospace; padding: 0.2em 0.4em; margin: 2px; border-radius: 3px;&quot;&gt;osago-aggregator&lt;/code&gt;&lt;span&gt;&amp;nbsp;&lt;/span&gt;&lt;span style=&quot;box-sizing: border-box;&quot;&gt;требуется собственное хранилище данных.&lt;/span&gt;&lt;span&gt;&amp;nbsp;&lt;/span&gt;&lt;span style=&quot;box-sizing: border-box;&quot;&gt;Оно будет использоваться для хранения заявок на ОСАГО,&lt;/span&gt;&lt;span&gt;&amp;nbsp;&lt;/span&gt;&lt;span style=&quot;box-sizing: border-box;&quot;&gt;статусов опроса страховых компаний и кэширования ответов на предложения.&lt;/span&gt;&lt;span&gt;&amp;nbsp;&lt;/span&gt;&lt;span style=&quot;box-sizing: border-box;&quot;&gt;Для этих целей может использоваться реляционная база данных&lt;/span&gt;&lt;span&gt;&amp;nbsp;&lt;/span&gt;(&lt;span style=&quot;box-sizing: border-box;&quot;&gt;например,&lt;/span&gt;&lt;span&gt;&amp;nbsp;&lt;/span&gt;&lt;span style=&quot;box-sizing: border-box;&quot;&gt;PostgreSQL&lt;/span&gt;)&lt;span&gt;&amp;nbsp;&lt;/span&gt;&lt;span style=&quot;box-sizing: border-box;&quot;&gt;или NoSQL для быстрого доступа к данным.&lt;/span&gt;&lt;span&gt;&amp;nbsp;&lt;/span&gt;&lt;span style=&quot;box-sizing: border-box;&quot;&gt;База данных также будет обеспечивать согласованность данных через механизм транзакционной публикации&lt;/span&gt;&lt;span&gt;&amp;nbsp;&lt;/span&gt;(&lt;span style=&quot;box-sizing: border-box;&quot;&gt;Transactional Outbox&lt;/span&gt;)&lt;span&gt;&amp;nbsp;&lt;/span&gt;&lt;span style=&quot;box-sizing: border-box;&quot;&gt;—&lt;/span&gt;&lt;span&gt;&amp;nbsp;&lt;/span&gt;&lt;span style=&quot;box-sizing: border-box;&quot;&gt;когда данные одновременно сохраняются в БД и публикуются в Kafka.&lt;/span&gt;&lt;/p&gt;&lt;h3 id=&quot;api-для-core-app&quot; style=&quot;box-sizing: border-box; position: relative; margin-top: 1em; margin-bottom: 16px; font-weight: bold; line-height: 1; font-size: 1.3em; padding-top: 0.6em; font-family: Helvetica, Arial, freesans, sans-serif; font-style: normal; font-variant-ligatures: normal; font-variant-caps: normal; letter-spacing: normal; orphans: 2; text-align: start; text-indent: 0px; text-transform: none; white-space: normal; widows: 2; word-spacing: 0px; -webkit-text-stroke-width: 0px; text-decoration-thickness: initial; text-decoration-style: initial; text-decoration-color: initial;&quot;&gt;API для core-app&lt;/h3&gt;&lt;ol style=&quot;box-sizing: border-box; padding: 0px 0px 0px 2em; margin-top: 16px; margin-bottom: 16px; font-family: Helvetica, Arial, freesans, sans-serif; font-size: 14px; font-style: normal; font-variant-ligatures: normal; font-variant-caps: normal; font-weight: 400; letter-spacing: normal; orphans: 2; text-align: start; text-indent: 0px; text-transform: none; white-space: normal; widows: 2; word-spacing: 0px; -webkit-text-stroke-width: 0px; text-decoration-thickness: initial; text-decoration-style: initial; text-decoration-color: initial;&quot;&gt;&lt;li style=&quot;box-sizing: border-box;&quot;&gt;&lt;strong style=&quot;font-weight: bold; box-sizing: border-box;&quot;&gt;POST&lt;/strong&gt;&lt;span&gt;&amp;nbsp;&lt;/span&gt;&lt;code style=&quot;box-sizing: border-box; font: 0.9em &amp;quot;JetBrains Mono&amp;quot;, Consolas, &amp;quot;Liberation Mono&amp;quot;, Menlo, Courier, monospace; padding: 0.2em 0.4em; margin: 2px; border-radius: 3px;&quot;&gt;/osago/submit-and-stream&lt;/code&gt;: создание заявки на ОСАГО и подписка на предложения (SSE).&lt;/li&gt;&lt;/ol&gt;&lt;ul style=&quot;box-sizing: border-box; padding: 0px 0px 0px 2em; margin-top: 16px; margin-bottom: 16px; font-family: Helvetica, Arial, freesans, sans-serif; font-size: 14px; font-style: normal; font-variant-ligatures: normal; font-variant-caps: normal; font-weight: 400; letter-spacing: normal; orphans: 2; text-align: start; text-indent: 0px; text-transform: none; white-space: normal; widows: 2; word-spacing: 0px; -webkit-text-stroke-width: 0px; text-decoration-thickness: initial; text-decoration-style: initial; text-decoration-color: initial;&quot;&gt;&lt;li style=&quot;box-sizing: border-box;&quot;&gt;&lt;strong style=&quot;font-weight: bold; box-sizing: border-box;&quot;&gt;Описание&lt;/strong&gt;: Клиент отправляет данные для создания заявки, и открывается SSE-соединение для получения предложений от страховых компаний в реальном времени.&lt;/li&gt;&lt;li style=&quot;box-sizing: border-box;&quot;&gt;&lt;strong style=&quot;font-weight: bold; box-sizing: border-box;&quot;&gt;Запрос&lt;/strong&gt;: Данные автомобиля, клиента и прочая необходимая информация для оформления ОСАГО.&lt;/li&gt;&lt;li style=&quot;box-sizing: border-box;&quot;&gt;&lt;strong style=&quot;font-weight: bold; box-sizing: border-box;&quot;&gt;Ответ&lt;/strong&gt;: Подтверждение создания заявки с&lt;span&gt;&amp;nbsp;&lt;/span&gt;&lt;code style=&quot;box-sizing: border-box; font: 0.9em &amp;quot;JetBrains Mono&amp;quot;, Consolas, &amp;quot;Liberation Mono&amp;quot;, Menlo, Courier, monospace; padding: 0.2em 0.4em; margin: 2px; border-radius: 3px;&quot;&gt;requestId&lt;/code&gt;&lt;span&gt;&amp;nbsp;&lt;/span&gt;и последующая отправка предложений через SSE по мере их поступления.&lt;/li&gt;&lt;/ul&gt;&lt;ol start=&quot;2&quot; style=&quot;box-sizing: border-box; padding: 0px 0px 0px 2em; margin-top: 16px; margin-bottom: 16px; font-family: Helvetica, Arial, freesans, sans-serif; font-size: 14px; font-style: normal; font-variant-ligatures: normal; font-variant-caps: normal; font-weight: 400; letter-spacing: normal; orphans: 2; text-align: start; text-indent: 0px; text-transform: none; white-space: normal; widows: 2; word-spacing: 0px; -webkit-text-stroke-width: 0px; text-decoration-thickness: initial; text-decoration-style: initial; text-decoration-color: initial;&quot;&gt;&lt;li style=&quot;box-sizing: border-box;&quot;&gt;&lt;strong style=&quot;font-weight: bold; box-sizing: border-box;&quot;&gt;GET&lt;/strong&gt;&lt;span&gt;&amp;nbsp;&lt;/span&gt;&lt;code style=&quot;box-sizing: border-box; font: 0.9em &amp;quot;JetBrains Mono&amp;quot;, Consolas, &amp;quot;Liberation Mono&amp;quot;, Menlo, Courier, monospace; padding: 0.2em 0.4em; margin: 2px; border-radius: 3px;&quot;&gt;/osago/request/{requestId}&lt;/code&gt;: получение данных по заявке на ОСАГО.&lt;/li&gt;&lt;/ol&gt;&lt;ul style=&quot;box-sizing: border-box; padding: 0px 0px 0px 2em; margin-top: 16px; margin-bottom: 16px; font-family: Helvetica, Arial, freesans, sans-serif; font-size: 14px; font-style: normal; font-variant-ligatures: normal; font-variant-caps: normal; font-weight: 400; letter-spacing: normal; orphans: 2; text-align: start; text-indent: 0px; text-transform: none; white-space: normal; widows: 2; word-spacing: 0px; -webkit-text-stroke-width: 0px; text-decoration-thickness: initial; text-decoration-style: initial; text-decoration-color: initial;&quot;&gt;&lt;li style=&quot;box-sizing: border-box;&quot;&gt;&lt;strong style=&quot;font-weight: bold; box-sizing: border-box;&quot;&gt;Описание&lt;/strong&gt;: Получение полной информации по конкретной заявке (включая предложения от страховых компаний).&lt;/li&gt;&lt;li style=&quot;box-sizing: border-box;&quot;&gt;&lt;strong style=&quot;font-weight: bold; box-sizing: border-box;&quot;&gt;Запрос&lt;/strong&gt;:&lt;span&gt;&amp;nbsp;&lt;/span&gt;&lt;code style=&quot;box-sizing: border-box; font: 0.9em &amp;quot;JetBrains Mono&amp;quot;, Consolas, &amp;quot;Liberation Mono&amp;quot;, Menlo, Courier, monospace; padding: 0.2em 0.4em; margin: 2px; border-radius: 3px;&quot;&gt;requestId&lt;/code&gt;&lt;span&gt;&amp;nbsp;&lt;/span&gt;— идентификатор заявки.&lt;/li&gt;&lt;li style=&quot;box-sizing: border-box;&quot;&gt;&lt;strong style=&quot;font-weight: bold; box-sizing: border-box;&quot;&gt;Ответ&lt;/strong&gt;: Данные по заявке, включая предложения от страховых компаний, если они уже доступны.&lt;/li&gt;&lt;/ul&gt;&lt;h3 id=&quot;api-для-osago-aggregator&quot; style=&quot;box-sizing: border-box; position: relative; margin-top: 1em; margin-bottom: 16px; font-weight: bold; line-height: 1; font-size: 1.3em; padding-top: 0.6em; font-family: Helvetica, Arial, freesans, sans-serif; font-style: normal; font-variant-ligatures: normal; font-variant-caps: normal; letter-spacing: normal; orphans: 2; text-align: start; text-indent: 0px; text-transform: none; white-space: normal; widows: 2; word-spacing: 0px; -webkit-text-stroke-width: 0px; text-decoration-thickness: initial; text-decoration-style: initial; text-decoration-color: initial;&quot;&gt;API для osago-aggregator&lt;/h3&gt;&lt;ol style=&quot;box-sizing: border-box; padding: 0px 0px 0px 2em; margin-top: 16px; margin-bottom: 16px; font-family: Helvetica, Arial, freesans, sans-serif; font-size: 14px; font-style: normal; font-variant-ligatures: normal; font-variant-caps: normal; font-weight: 400; letter-spacing: normal; orphans: 2; text-align: start; text-indent: 0px; text-transform: none; white-space: normal; widows: 2; word-spacing: 0px; -webkit-text-stroke-width: 0px; text-decoration-thickness: initial; text-decoration-style: initial; text-decoration-color: initial;&quot;&gt;&lt;li style=&quot;box-sizing: border-box;&quot;&gt;&lt;strong style=&quot;font-weight: bold; box-sizing: border-box;&quot;&gt;POST&lt;/strong&gt;&lt;span&gt;&amp;nbsp;&lt;/span&gt;&lt;code style=&quot;box-sizing: border-box; font: 0.9em &amp;quot;JetBrains Mono&amp;quot;, Consolas, &amp;quot;Liberation Mono&amp;quot;, Menlo, Courier, monospace; padding: 0.2em 0.4em; margin: 2px; border-radius: 3px;&quot;&gt;/osago/request&lt;/code&gt;: создание заявки ко всем вендорам ОСАГО.&lt;/li&gt;&lt;/ol&gt;&lt;ul style=&quot;box-sizing: border-box; padding: 0px 0px 0px 2em; margin-top: 16px; margin-bottom: 16px; font-family: Helvetica, Arial, freesans, sans-serif; font-size: 14px; font-style: normal; font-variant-ligatures: normal; font-variant-caps: normal; font-weight: 400; letter-spacing: normal; orphans: 2; text-align: start; text-indent: 0px; text-transform: none; white-space: normal; widows: 2; word-spacing: 0px; -webkit-text-stroke-width: 0px; text-decoration-thickness: initial; text-decoration-style: initial; text-decoration-color: initial;&quot;&gt;&lt;li style=&quot;box-sizing: border-box;&quot;&gt;&lt;strong style=&quot;font-weight: bold; box-sizing: border-box;&quot;&gt;Описание&lt;/strong&gt;: Создание заявки на ОСАГО, после чего сервис асинхронно отправляет запросы всем подключённым вендорам страховых услуг. Этот запрос не возвращает предложения сразу, а лишь подтверждает, что процесс отправки заявок вендорам начат. Получение предложений от вендоров обрабатывается асинхронно и поступает в дальнейшем через другой запрос (kafka или REST API).&lt;/li&gt;&lt;li style=&quot;box-sizing: border-box;&quot;&gt;&lt;strong style=&quot;font-weight: bold; box-sizing: border-box;&quot;&gt;Запрос&lt;/strong&gt;: Данные автомобиля и прочая необходимая информация для оформления ОСАГО.&lt;/li&gt;&lt;li style=&quot;box-sizing: border-box;&quot;&gt;&lt;strong style=&quot;font-weight: bold; box-sizing: border-box;&quot;&gt;Ответ&lt;/strong&gt;: HTTP 200 OK, подтверждающий успешное создание заявки и запуск асинхронного процесса опроса вендоров.&lt;/li&gt;&lt;/ul&gt;&lt;ol style=&quot;box-sizing: border-box; padding: 0px 0px 0px 2em; margin-top: 16px; margin-bottom: 16px; font-family: Helvetica, Arial, freesans, sans-serif; font-size: 14px; font-style: normal; font-variant-ligatures: normal; font-variant-caps: normal; font-weight: 400; letter-spacing: normal; orphans: 2; text-align: start; text-indent: 0px; text-transform: none; white-space: normal; widows: 2; word-spacing: 0px; -webkit-text-stroke-width: 0px; text-decoration-thickness: initial; text-decoration-style: initial; text-decoration-color: initial;&quot;&gt;&lt;li style=&quot;box-sizing: border-box;&quot;&gt;&lt;strong style=&quot;font-weight: bold; box-sizing: border-box;&quot;&gt;GET&lt;/strong&gt;&lt;span&gt;&amp;nbsp;&lt;/span&gt;&lt;code style=&quot;box-sizing: border-box; font: 0.9em &amp;quot;JetBrains Mono&amp;quot;, Consolas, &amp;quot;Liberation Mono&amp;quot;, Menlo, Courier, monospace; padding: 0.2em 0.4em; margin: 2px; border-radius: 3px;&quot;&gt;/osago/request/{requestId}&lt;/code&gt;: получение данных по заявке ОСАГО.&lt;/li&gt;&lt;/ol&gt;&lt;ul style=&quot;box-sizing: border-box; padding: 0px 0px 0px 2em; margin-top: 16px; margin-bottom: 16px; font-family: Helvetica, Arial, freesans, sans-serif; font-size: 14px; font-style: normal; font-variant-ligatures: normal; font-variant-caps: normal; font-weight: 400; letter-spacing: normal; orphans: 2; text-align: start; text-indent: 0px; text-transform: none; white-space: normal; widows: 2; word-spacing: 0px; -webkit-text-stroke-width: 0px; text-decoration-thickness: initial; text-decoration-style: initial; text-decoration-color: initial;&quot;&gt;&lt;li style=&quot;box-sizing: border-box;&quot;&gt;&lt;strong style=&quot;font-weight: bold; box-sizing: border-box;&quot;&gt;Описание&lt;/strong&gt;: Получение информации по заявке на ОСАГО из базы данных, включая текущий статус обработки и предложения.&lt;/li&gt;&lt;li style=&quot;box-sizing: border-box;&quot;&gt;&lt;strong style=&quot;font-weight: bold; box-sizing: border-box;&quot;&gt;Запрос&lt;/strong&gt;:&lt;span&gt;&amp;nbsp;&lt;/span&gt;&lt;code style=&quot;box-sizing: border-box; font: 0.9em &amp;quot;JetBrains Mono&amp;quot;, Consolas, &amp;quot;Liberation Mono&amp;quot;, Menlo, Courier, monospace; padding: 0.2em 0.4em; margin: 2px; border-radius: 3px;&quot;&gt;requestId&lt;/code&gt;&lt;span&gt;&amp;nbsp;&lt;/span&gt;— идентификатор заявки.&lt;/li&gt;&lt;li style=&quot;box-sizing: border-box;&quot;&gt;&lt;strong style=&quot;font-weight: bold; box-sizing: border-box;&quot;&gt;Ответ&lt;/strong&gt;: Данные заявки, включая предложения от страховых компаний.&lt;/li&gt;&lt;/ul&gt;&lt;ol start=&quot;2&quot; style=&quot;box-sizing: border-box; padding: 0px 0px 0px 2em; margin-top: 16px; margin-bottom: 16px; font-family: Helvetica, Arial, freesans, sans-serif; font-size: 14px; font-style: normal; font-variant-ligatures: normal; font-variant-caps: normal; font-weight: 400; letter-spacing: normal; orphans: 2; text-align: start; text-indent: 0px; text-transform: none; white-space: normal; widows: 2; word-spacing: 0px; -webkit-text-stroke-width: 0px; text-decoration-thickness: initial; text-decoration-style: initial; text-decoration-color: initial;&quot;&gt;&lt;li style=&quot;box-sizing: border-box;&quot;&gt;&lt;strong style=&quot;font-weight: bold; box-sizing: border-box;&quot;&gt;Kafka-топик&lt;/strong&gt;&lt;span&gt;&amp;nbsp;&lt;/span&gt;&lt;code style=&quot;box-sizing: border-box; font: 0.9em &amp;quot;JetBrains Mono&amp;quot;, Consolas, &amp;quot;Liberation Mono&amp;quot;, Menlo, Courier, monospace; padding: 0.2em 0.4em; margin: 2px; border-radius: 3px;&quot;&gt;osago-offers&lt;/code&gt;: публикация предложений страховых компаний.&lt;/li&gt;&lt;/ol&gt;&lt;ul style=&quot;box-sizing: border-box; padding: 0px 0px 0px 2em; margin-top: 16px; margin-bottom: 16px; font-family: Helvetica, Arial, freesans, sans-serif; font-size: 14px; font-style: normal; font-variant-ligatures: normal; font-variant-caps: normal; font-weight: 400; letter-spacing: normal; orphans: 2; text-align: start; text-indent: 0px; text-transform: none; white-space: normal; widows: 2; word-spacing: 0px; -webkit-text-stroke-width: 0px; text-decoration-thickness: initial; text-decoration-style: initial; text-decoration-color: initial;&quot;&gt;&lt;li style=&quot;box-sizing: border-box;&quot;&gt;&lt;strong style=&quot;font-weight: bold; box-sizing: border-box;&quot;&gt;Описание&lt;/strong&gt;:&lt;span&gt;&amp;nbsp;&lt;/span&gt;&lt;code style=&quot;box-sizing: border-box; font: 0.9em &amp;quot;JetBrains Mono&amp;quot;, Consolas, &amp;quot;Liberation Mono&amp;quot;, Menlo, Courier, monospace; padding: 0.2em 0.4em; margin: 2px; border-radius: 3px;&quot;&gt;osago-aggregator&lt;/code&gt;&lt;span&gt;&amp;nbsp;&lt;/span&gt;отправляет предложения от страховых компаний в Kafka-топик после их получения.&lt;/li&gt;&lt;li style=&quot;box-sizing: border-box;&quot;&gt;&lt;strong style=&quot;font-weight: bold; box-sizing: border-box;&quot;&gt;Сообщение&lt;/strong&gt;: Информация о предложениях для заявки с указанным&lt;span&gt;&amp;nbsp;&lt;/span&gt;&lt;code style=&quot;box-sizing: border-box; font: 0.9em &amp;quot;JetBrains Mono&amp;quot;, Consolas, &amp;quot;Liberation Mono&amp;quot;, Menlo, Courier, monospace; padding: 0.2em 0.4em; margin: 2px; border-radius: 3px;&quot;&gt;requestId&lt;/code&gt;.&lt;/li&gt;&lt;/ul&gt;&lt;h3 id=&quot;паттерны-отказоустойчивости&quot; style=&quot;box-sizing: border-box; position: relative; margin-top: 1em; margin-bottom: 16px; font-weight: bold; line-height: 1; font-size: 1.3em; padding-top: 0.6em; font-family: Helvetica, Arial, freesans, sans-serif; font-style: normal; font-variant-ligatures: normal; font-variant-caps: normal; letter-spacing: normal; orphans: 2; text-align: start; text-indent: 0px; text-transform: none; white-space: normal; widows: 2; word-spacing: 0px; -webkit-text-stroke-width: 0px; text-decoration-thickness: initial; text-decoration-style: initial; text-decoration-color: initial;&quot;&gt;Паттерны отказоустойчивости&lt;/h3&gt;&lt;ol style=&quot;box-sizing: border-box; padding: 0px 0px 0px 2em; margin-top: 16px; margin-bottom: 16px; font-family: Helvetica, Arial, freesans, sans-serif; font-size: 14px; font-style: normal; font-variant-ligatures: normal; font-variant-caps: normal; font-weight: 400; letter-spacing: normal; orphans: 2; text-align: start; text-indent: 0px; text-transform: none; white-space: normal; widows: 2; word-spacing: 0px; -webkit-text-stroke-width: 0px; text-decoration-thickness: initial; text-decoration-style: initial; text-decoration-color: initial;&quot;&gt;&lt;li style=&quot;box-sizing: border-box;&quot;&gt;&lt;strong style=&quot;font-weight: bold; box-sizing: border-box;&quot;&gt;Rate Limiting&lt;/strong&gt;&lt;span&gt;&amp;nbsp;&lt;/span&gt;(в core-app для создания заявок)&lt;/li&gt;&lt;/ol&gt;&lt;ul style=&quot;box-sizing: border-box; padding: 0px 0px 0px 2em; margin-top: 16px; margin-bottom: 16px; font-family: Helvetica, Arial, freesans, sans-serif; font-size: 14px; font-style: normal; font-variant-ligatures: normal; font-variant-caps: normal; font-weight: 400; letter-spacing: normal; orphans: 2; text-align: start; text-indent: 0px; text-transform: none; white-space: normal; widows: 2; word-spacing: 0px; -webkit-text-stroke-width: 0px; text-decoration-thickness: initial; text-decoration-style: initial; text-decoration-color: initial;&quot;&gt;&lt;li style=&quot;box-sizing: border-box;&quot;&gt;&lt;strong style=&quot;font-weight: bold; box-sizing: border-box;&quot;&gt;Описание&lt;/strong&gt;: Ограничение количества создаваемых заявок на ОСАГО в&lt;span&gt;&amp;nbsp;&lt;/span&gt;&lt;code style=&quot;box-sizing: border-box; font: 0.9em &amp;quot;JetBrains Mono&amp;quot;, Consolas, &amp;quot;Liberation Mono&amp;quot;, Menlo, Courier, monospace; padding: 0.2em 0.4em; margin: 2px; border-radius: 3px;&quot;&gt;core-app&lt;/code&gt;, чтобы предотвратить перегрузку системы. Этот паттерн поможет контролировать нагрузку на сервер при повышенном трафике, ограничивая количество заявок, которые могут быть созданы за определённый период времени.&lt;/li&gt;&lt;/ul&gt;&lt;ol start=&quot;2&quot; style=&quot;box-sizing: border-box; padding: 0px 0px 0px 2em; margin-top: 16px; margin-bottom: 16px; font-family: Helvetica, Arial, freesans, sans-serif; font-size: 14px; font-style: normal; font-variant-ligatures: normal; font-variant-caps: normal; font-weight: 400; letter-spacing: normal; orphans: 2; text-align: start; text-indent: 0px; text-transform: none; white-space: normal; widows: 2; word-spacing: 0px; -webkit-text-stroke-width: 0px; text-decoration-thickness: initial; text-decoration-style: initial; text-decoration-color: initial;&quot;&gt;&lt;li style=&quot;box-sizing: border-box;&quot;&gt;&lt;strong style=&quot;font-weight: bold; box-sizing: border-box;&quot;&gt;Bulkhead&lt;/strong&gt;&lt;span&gt;&amp;nbsp;&lt;/span&gt;(в osago-aggregator для запросов к страховым компаниям)&lt;/li&gt;&lt;/ol&gt;&lt;ul style=&quot;box-sizing: border-box; padding: 0px 0px 0px 2em; margin-top: 16px; margin-bottom: 16px; font-family: Helvetica, Arial, freesans, sans-serif; font-size: 14px; font-style: normal; font-variant-ligatures: normal; font-variant-caps: normal; font-weight: 400; letter-spacing: normal; orphans: 2; text-align: start; text-indent: 0px; text-transform: none; white-space: normal; widows: 2; word-spacing: 0px; -webkit-text-stroke-width: 0px; text-decoration-thickness: initial; text-decoration-style: initial; text-decoration-color: initial;&quot;&gt;&lt;li style=&quot;box-sizing: border-box;&quot;&gt;&lt;strong style=&quot;font-weight: bold; box-sizing: border-box;&quot;&gt;Описание&lt;/strong&gt;: Изолирование запросов к разным страховым компаниям в отдельные тредпулы, чтобы проблемы с одной компанией не повлияли на общую доступность сервиса. Это позволит уменьшить влияние перегрузки или отказов конкретного вендора на всю систему.&lt;/li&gt;&lt;/ul&gt;&lt;ol start=&quot;3&quot; style=&quot;box-sizing: border-box; padding: 0px 0px 0px 2em; margin-top: 16px; margin-bottom: 16px; font-family: Helvetica, Arial, freesans, sans-serif; font-size: 14px; font-style: normal; font-variant-ligatures: normal; font-variant-caps: normal; font-weight: 400; letter-spacing: normal; orphans: 2; text-align: start; text-indent: 0px; text-transform: none; white-space: normal; widows: 2; word-spacing: 0px; -webkit-text-stroke-width: 0px; text-decoration-thickness: initial; text-decoration-style: initial; text-decoration-color: initial;&quot;&gt;&lt;li style=&quot;box-sizing: border-box;&quot;&gt;&lt;strong style=&quot;font-weight: bold; box-sizing: border-box;&quot;&gt;Circuit Breaker&lt;/strong&gt;&lt;span&gt;&amp;nbsp;&lt;/span&gt;(в osago-aggregator для запросов к страховым компаниям)&lt;/li&gt;&lt;/ol&gt;&lt;ul style=&quot;box-sizing: border-box; padding: 0px 0px 0px 2em; margin-top: 16px; margin-bottom: 16px; font-family: Helvetica, Arial, freesans, sans-serif; font-size: 14px; font-style: normal; font-variant-ligatures: normal; font-variant-caps: normal; font-weight: 400; letter-spacing: normal; orphans: 2; text-align: start; text-indent: 0px; text-transform: none; white-space: normal; widows: 2; word-spacing: 0px; -webkit-text-stroke-width: 0px; text-decoration-thickness: initial; text-decoration-style: initial; text-decoration-color: initial;&quot;&gt;&lt;li style=&quot;box-sizing: border-box;&quot;&gt;&lt;strong style=&quot;font-weight: bold; box-sizing: border-box;&quot;&gt;Описание&lt;/strong&gt;: Паттерн, который временно блокирует взаимодействие с вендором, если количество ошибок или задержек превышает установленный порог. Это предотвращает дополнительные попытки взаимодействия с недоступными или медленными страховыми компаниями, уменьшая время отклика системы и повышая её отказоустойчивость.&lt;/li&gt;&lt;/ul&gt;&lt;ol start=&quot;4&quot; style=&quot;box-sizing: border-box; padding: 0px 0px 0px 2em; margin-top: 16px; margin-bottom: 16px; font-family: Helvetica, Arial, freesans, sans-serif; font-size: 14px; font-style: normal; font-variant-ligatures: normal; font-variant-caps: normal; font-weight: 400; letter-spacing: normal; orphans: 2; text-align: start; text-indent: 0px; text-transform: none; white-space: normal; widows: 2; word-spacing: 0px; -webkit-text-stroke-width: 0px; text-decoration-thickness: initial; text-decoration-style: initial; text-decoration-color: initial;&quot;&gt;&lt;li style=&quot;box-sizing: border-box;&quot;&gt;&lt;strong style=&quot;font-weight: bold; box-sizing: border-box;&quot;&gt;Timeout&lt;/strong&gt;&lt;span&gt;&amp;nbsp;&lt;/span&gt;(в osago-aggregator для запросов к страховым компаниям)&lt;/li&gt;&lt;/ol&gt;&lt;ul style=&quot;box-sizing: border-box; padding: 0px 0px 0px 2em; margin-top: 16px; margin-bottom: 16px; font-family: Helvetica, Arial, freesans, sans-serif; font-size: 14px; font-style: normal; font-variant-ligatures: normal; font-variant-caps: normal; font-weight: 400; letter-spacing: normal; orphans: 2; text-align: start; text-indent: 0px; text-transform: none; white-space: normal; widows: 2; word-spacing: 0px; -webkit-text-stroke-width: 0px; text-decoration-thickness: initial; text-decoration-style: initial; text-decoration-color: initial;&quot;&gt;&lt;li style=&quot;box-sizing: border-box;&quot;&gt;&lt;strong style=&quot;font-weight: bold; box-sizing: border-box;&quot;&gt;Описание&lt;/strong&gt;: Установить тайм-аут в 60 секунд для ожидания ответа от страховых компаний. Если ответ не поступает в этот период, продолжать обработку с доступными предложениями.&lt;/li&gt;&lt;/ul&gt;" style="text;whiteSpace=wrap;html=1;labelBackgroundColor=default;fontColor=#000000;" vertex="1" parent="1">
          <mxGeometry x="2180" y="-90" width="560" height="1670" as="geometry" />
        </mxCell>
      </root>
    </mxGraphModel>
  </diagram>
</mxfile>
